<svg width="25" height="25" viewBox="0 0 25 25" fill="none" xmlns="http://www.w3.org/2000/svg">
<path d="M9.5 13C9.78333 13 10.0208 12.9042 10.2125 12.7125C10.4042 12.5208 10.5 12.2833 10.5 12C10.5 11.7167 10.4042 11.4792 10.2125 11.2875C10.0208 11.0958 9.78333 11 9.5 11C9.21667 11 8.97917 11.0958 8.7875 11.2875C8.59583 11.4792 8.5 11.7167 8.5 12C8.5 12.2833 8.59583 12.5208 8.7875 12.7125C8.97917 12.9042 9.21667 13 9.5 13ZM13 13C13.2833 13 13.5208 12.9042 13.7125 12.7125C13.9042 12.5208 14 12.2833 14 12C14 11.7167 13.9042 11.4792 13.7125 11.2875C13.5208 11.0958 13.2833 11 13 11C12.7167 11 12.4792 11.0958 12.2875 11.2875C12.0958 11.4792 12 11.7167 12 12C12 12.2833 12.0958 12.5208 12.2875 12.7125C12.4792 12.9042 12.7167 13 13 13ZM16.5 13C16.7833 13 17.0208 12.9042 17.2125 12.7125C17.4042 12.5208 17.5 12.2833 17.5 12C17.5 11.7167 17.4042 11.4792 17.2125 11.2875C17.0208 11.0958 16.7833 11 16.5 11C16.2167 11 15.9792 11.0958 15.7875 11.2875C15.5958 11.4792 15.5 11.7167 15.5 12C15.5 12.2833 15.5958 12.5208 15.7875 12.7125C15.9792 12.9042 16.2167 13 16.5 13ZM9 19C8.66667 19 8.35417 18.925 8.0625 18.775C7.77083 18.625 7.53333 18.4167 7.35 18.15L3 12L7.35 5.85C7.53333 5.58333 7.77083 5.375 8.0625 5.225C8.35417 5.075 8.66667 5 9 5H19C19.55 5 20.0208 5.19583 20.4125 5.5875C20.8042 5.97917 21 6.45 21 7V17C21 17.55 20.8042 18.0208 20.4125 18.4125C20.0208 18.8042 19.55 19 19 19H9ZM9 17H19V7H9L5.45 12L9 17Z" fill="#3E2F5B"/>
</svg>
